# xmcd
#
# Track frame offsets:
#	150
#	21295
#	38577
#
# Disc length: 894 seconds
#
# Revision: 3
# Processed by: cddbd v1.5.2PL0 Copyright (c) Steve Scherf et al.
# Submitted via: EasyCDDAExtractor 2010.6.0.0
#
DISCID=19037c03
DTITLE=Velocette - Reborn
DYEAR=1998
DGENRE=Acid Punk
TTITLE0=Reborn
TTITLE1=Sister
TTITLE2=Slow Dancing Angels
EXTD=
EXTT0=
EXTT1=
EXTT2=
PLAYORDER=
